<!--?xml version="1.0" encoding="utf-8"?-->
<!-- Generator: Adobe Illustrator 22.1.0, SVG Export Plug-In . SVG Version: 6.00 Build 0)  -->
<svg version="1.1" id="_x37_" xmlns="http://www.w3.org/2000/svg" xmlns:xlink="http://www.w3.org/1999/xlink" x="0px" y="0px" viewBox="0 0 800 790.244" style="width: 69px;" xml:space="preserve">
<style type="text/css">
	.st0{fill:#040000;}
</style>
<g>
	<path class="st0" d="M783.881,592.385c-4.444-26.632,13.311-42.913-2.953-149.447l-2.302-3.881
		c-5.565-58.113,4.091-151.289,7.288-235.115c3.327-87.32-8.552-160.919-13.143-181.213c-8.314-36.71-51.631-21.556-39.943,20.709
		c13.627,49.374,0.385,258.346-3.801,313.01c-3.396,18.488-67.376-8.272-131.582-12.648c-65.101-4.438-162.752,7.399-216.016,16.276
		c-53.264,8.878-214.548-5.912-221.951-20.714c-7.397-14.795-28.105-54.744-42.907-48.825c-14.802,5.918-19.235,35.51-20.709,39.949
		c-1.491,4.438-37,22.193-51.79,31.07c-14.802,8.878-29.597,68.065-38.475,76.943c-8.878,8.877,1.475,16.275,1.475,16.275
		c5.923,7.403,10.367,23.673,32.555,22.194c22.199-1.475,71.02-1.475,90.254,14.8c19.244,16.27,100.9,102.475,108.019,122.809
		c10.357,29.591,10.152,117.271,0.552,123.179c-9.598,5.902-18.386,7.202-21.862,24.168c-3.475,16.964,10.999,23.799,43.802,12.979
		c32.803-10.831,67.908-140.638,75.258-138.906c49.094,11.552,239.686,25.99,311.874-14.437
		c5.313-2.986,53.322,31.539,75.084,57.756c20.214,24.352,23.304,73.452,14.437,80.855c-8.887,7.398-17.98,15.628,8.662,25.989
		c26.622,10.352,44.714-19.713,46.203-40.427c0.791-11.052,7.614-52.058,5.776-86.637
		C796.066,628.821,785.956,604.81,783.881,592.385z" style="fill: rgb(0, 0, 0);"></path>
</g>
</svg>