<!--?xml version="1.0" encoding="utf-8"?-->
<!-- Generator: Adobe Illustrator 22.1.0, SVG Export Plug-In . SVG Version: 6.00 Build 0)  -->
<svg version="1.1" id="_x39_" xmlns="http://www.w3.org/2000/svg" xmlns:xlink="http://www.w3.org/1999/xlink" x="0px" y="0px" viewBox="0 0 800 786.985" style="width: 72px;" xml:space="preserve">
<style type="text/css">
	.st0{fill:#040000;}
</style>
<g>
	<path class="st0" d="M647.63,618.283c5.313-2.986,53.331,31.545,75.091,57.764c20.216,24.356,23.307,73.463,14.444,80.868
		c-8.894,7.399-17.984,15.63,8.663,25.993c26.626,10.354,44.721-19.716,46.211-40.433c0.811-11.376,7.557-54.158,5.609-89.689
		c-1.606-29.212-11.633-51.672-13.639-63.684c-4.45-26.636,13.308-42.92-2.959-149.471c-8.642-56.507,2.302-157.644,5.745-247.917
		c3.329-87.33-11.07-127.632-29.933-148.649c-75.812-84.475-103.276-16.616-62.815,8.662
		c69.313,43.325,38.353,263.278,35.209,300.595c-1.706,20.06-66.597-7.404-131.718-11.844c-65.106-4.44-162.773,7.4-216.057,16.277
		c-53.272,8.88-214.576-5.913-221.975-20.717c-7.4-14.797-28.117-54.751-42.914-48.833c-14.804,5.919-19.238,35.516-20.717,39.955
		c-1.485,4.439-36.995,22.197-51.794,31.075c-14.803,8.879-29.607,68.076-38.485,76.956c-8.879,8.878,1.48,16.277,1.48,16.277
		c5.924,7.404,10.364,23.677,32.56,22.197c22.202-1.475,71.032-1.475,90.273,14.803c19.238,16.272,100.912,102.492,108.026,122.829
		c10.359,29.596,10.158,117.289,0.553,123.198c-9.6,5.903-18.39,7.203-21.86,24.172c-3.476,16.967,10.995,23.803,43.799,12.981
		c32.808-10.832,67.924-140.66,75.275-138.928C384.799,644.277,575.425,658.717,647.63,618.283z" style="fill: rgb(255, 255, 255);"></path>
</g>
</svg>