<!--?xml version="1.0" encoding="utf-8"?-->
<!-- Generator: Adobe Illustrator 22.1.0, SVG Export Plug-In . SVG Version: 6.00 Build 0)  -->
<svg version="1.1" id="_x38_" xmlns="http://www.w3.org/2000/svg" xmlns:xlink="http://www.w3.org/1999/xlink" x="0px" y="0px" viewBox="0 0 800 777.053" style="width: 65px;" xml:space="preserve">
<style type="text/css">
	.st0{fill:#040000;}
</style>
<g>
	<path class="st0" d="M716.525,346.154c3.089-36.652,33.506-252.75-34.593-295.322c-39.752-24.835-12.769-91.507,61.716-8.505
		c18.533,20.644,32.679,60.236,29.409,146.041c-3.383,88.692-14.136,188.054-5.644,243.582
		c15.982,104.68-1.465,120.668,2.907,146.849c4.367,26.17,29.082,126.494,27.618,146.849c-1.449,20.344-21.814,43.617-47.973,33.435
		c-26.18-10.173-10.173-24.711-1.465-31.987c8.739-7.274,18.912-50.891-8.708-69.787c-27.634-18.906-61.078-62.523-66.884-61.063
		c-5.821,1.448-33.445,65.42-42.169,97.406c-8.733,31.996-59.61,82.878-95.967,81.429c-36.347-1.459-26.16-27.619-13.08-31.986
		c13.08-4.367,53.795-33.445,55.244-52.341c1.464-18.905-1.449-36.363-27.62-93.06c-29.088,10.173-122.126,17.447-165.754,8.724
		c0,24.721-17.447,106.149,7.275,117.77c24.711,11.632,20.354,29.079,11.63,36.353c-8.723,7.263-37.8-2.908-61.068-18.906
		c-23.263-15.988-37.801-120.679-45.076-119.22c-7.27,1.448-30.527,126.494-63.967,132.311
		c-33.444,5.815-46.535-2.909-40.714-18.906c5.821-15.988,14.544-15.988,24.717-20.354c10.177-4.367,27.624-85.785,17.447-114.863
		c-6.991-19.992-87.235-104.681-106.135-120.678c-18.905-15.988-66.879-15.988-88.693-14.539
		c-21.808,1.459-26.17-14.54-31.991-21.803c0,0-10.178-7.275-1.453-15.998c8.723-8.724,23.267-66.879,37.811-75.603
		c14.54-8.733,49.428-26.18,50.887-30.547c1.454-4.346,5.81-33.424,20.354-39.25c14.538-5.815,34.893,33.445,42.164,47.994
		c7.269,14.529,165.749,29.068,218.089,20.344c52.352-8.723,148.308-20.344,212.275-15.986
		C651.094,338.879,714.848,365.867,716.525,346.154z" style="fill: rgb(255, 255, 255);"></path>
</g>
</svg>
